<svg width="24" height="24" viewBox="0 0 24 24" fill="none" xmlns="http://www.w3.org/2000/svg">
  <!-- Grille de dashboard -->
  <rect x="3" y="3" width="7" height="7" rx="1" stroke="#1E40AF" stroke-width="2"/>
  <rect x="14" y="3" width="7" height="7" rx="1" stroke="#1E40AF" stroke-width="2"/>
  <rect x="3" y="14" width="7" height="7" rx="1" stroke="#1E40AF" stroke-width="2"/>
  <rect x="14" y="14" width="7" height="7" rx="1" stroke="#1E40AF" stroke-width="2"/>
  
  <!-- Graphiques dans les cases -->
  <path d="M5 8L6 7L7 8L8 6" stroke="#10B981" stroke-width="1.5" stroke-linecap="round" stroke-linejoin="round"/>
  <path d="M16 8L17 7L18 8L19 6" stroke="#10B981" stroke-width="1.5" stroke-linecap="round" stroke-linejoin="round"/>
  
  <!-- Métriques -->
  <circle cx="6" cy="17" r="1" fill="#1E40AF"/>
  <circle cx="17" cy="17" r="1" fill="#1E40AF"/>
  <circle cx="6" cy="6" r="1" fill="#1E40AF"/>
  <circle cx="17" cy="6" r="1" fill="#1E40AF"/>
  
  <!-- Indicateurs -->
  <path d="M8 6H10" stroke="#6B7280" stroke-width="1" stroke-linecap="round"/>
  <path d="M19 6H21" stroke="#6B7280" stroke-width="1" stroke-linecap="round"/>
  <path d="M8 17H10" stroke="#6B7280" stroke-width="1" stroke-linecap="round"/>
  <path d="M19 17H21" stroke="#6B7280" stroke-width="1" stroke-linecap="round"/>
</svg>
