<svg width="24" height="24" viewBox="0 0 24 24" fill="none" xmlns="http://www.w3.org/2000/svg">
  <!-- Document principal -->
  <path d="M14 2H6C5.46957 2 4.96086 2.21071 4.58579 2.58579C4.21071 2.96086 4 3.46957 4 4V20C4 20.5304 4.21071 21.0391 4.58579 21.4142C4.96086 21.7893 5.46957 22 6 22H18C18.5304 22 19.0391 21.7893 19.4142 21.4142C19.7893 21.0391 20 20.5304 20 20V8L14 2Z" stroke="#1E40AF" stroke-width="2" stroke-linecap="round" stroke-linejoin="round"/>
  
  <!-- Onglet PDF -->
  <path d="M14 2V8H20" stroke="#1E40AF" stroke-width="2" stroke-linecap="round" stroke-linejoin="round"/>
  
  <!-- Logo PDF -->
  <rect x="7" y="10" width="10" height="2" rx="1" fill="#EF4444"/>
  <text x="12" y="11.5" text-anchor="middle" font-family="Arial, sans-serif" font-size="8" font-weight="bold" fill="white">PDF</text>
  
  <!-- Lignes de contenu -->
  <path d="M7 14H17" stroke="#6B7280" stroke-width="1" stroke-linecap="round"/>
  <path d="M7 16H15" stroke="#6B7280" stroke-width="1" stroke-linecap="round"/>
  <path d="M7 18H13" stroke="#6B7280" stroke-width="1" stroke-linecap="round"/>
  
  <!-- Icône PDF -->
  <path d="M8 6L10 6" stroke="#EF4444" stroke-width="1.5" stroke-linecap="round"/>
  <path d="M8 8L12 8" stroke="#EF4444" stroke-width="1.5" stroke-linecap="round"/>
</svg>
