<svg width="24" height="24" viewBox="0 0 24 24" fill="none" xmlns="http://www.w3.org/2000/svg">
  <!-- Point d'interrogation -->
  <circle cx="12" cy="12" r="10" stroke="#1E40AF" stroke-width="2"/>
  <path d="M9.09 9C9.3251 8.33167 9.78918 7.76811 10.4 7.40921C11.0108 7.0503 11.7289 6.91894 12.4272 7.03871C13.1255 7.15849 13.7588 7.52252 14.2151 8.05548C14.6713 8.58844 14.9211 9.25222 14.92 9.94C14.92 12 11.92 13 11.92 13" stroke="#1E40AF" stroke-width="2" stroke-linecap="round" stroke-linejoin="round"/>
  <path d="M12 17H12.01" stroke="#1E40AF" stroke-width="2" stroke-linecap="round" stroke-linejoin="round"/>
  
  <!-- Éléments de support -->
  <path d="M6 6L8 8" stroke="#10B981" stroke-width="1.5" stroke-linecap="round"/>
  <path d="M18 6L16 8" stroke="#10B981" stroke-width="1.5" stroke-linecap="round"/>
  <path d="M6 18L8 16" stroke="#10B981" stroke-width="1.5" stroke-linecap="round"/>
  <path d="M18 18L16 16" stroke="#10B981" stroke-width="1.5" stroke-linecap="round"/>
  
  <!-- Indicateurs d'aide -->
  <circle cx="12" cy="4" r="1" fill="#1E40AF"/>
  <circle cx="12" cy="20" r="1" fill="#1E40AF"/>
  <circle cx="4" cy="12" r="1" fill="#1E40AF"/>
  <circle cx="20" cy="12" r="1" fill="#1E40AF"/>
</svg>
