<svg width="24" height="24" viewBox="0 0 24 24" fill="none" xmlns="http://www.w3.org/2000/svg">
  <!-- Personne 1 -->
  <circle cx="8" cy="8" r="3" stroke="#1E40AF" stroke-width="2"/>
  <path d="M8 11C6.34 11 5 12.34 5 14V16H11V14C11 12.34 9.66 11 8 11Z" stroke="#1E40AF" stroke-width="2"/>
  
  <!-- Personne 2 -->
  <circle cx="16" cy="8" r="3" stroke="#1E40AF" stroke-width="2"/>
  <path d="M16 11C14.34 11 13 12.34 13 14V16H19V14C19 12.34 17.66 11 16 11Z" stroke="#1E40AF" stroke-width="2"/>
  
  <!-- Personne 3 (centre) -->
  <circle cx="12" cy="6" r="2.5" stroke="#10B981" stroke-width="2"/>
  <path d="M12 8.5C10.9 8.5 10 9.4 10 10.5V12H14V10.5C14 9.4 13.1 8.5 12 8.5Z" stroke="#10B981" stroke-width="2"/>
  
  <!-- Connexions -->
  <path d="M10 9L12 7L14 9" stroke="#6B7280" stroke-width="1.5" stroke-linecap="round"/>
  <path d="M8 10L10 12" stroke="#6B7280" stroke-width="1.5" stroke-linecap="round"/>
  <path d="M16 10L14 12" stroke="#6B7280" stroke-width="1.5" stroke-linecap="round"/>
  
  <!-- Éléments de collaboration -->
  <path d="M6 18L18 18" stroke="#6B7280" stroke-width="1" stroke-linecap="round"/>
  <circle cx="12" cy="20" r="1" fill="#1E40AF"/>
</svg>
