<svg width="24" height="24" viewBox="0 0 24 24" fill="none" xmlns="http://www.w3.org/2000/svg">
  <!-- Cerveau/IA -->
  <path d="M12 2C8.13 2 5 5.13 5 9C5 11.38 6.19 13.47 8 14.74V17C8 17.55 8.45 18 9 18H15C15.55 18 16 17.55 16 17V14.74C17.81 13.47 19 11.38 19 9C19 5.13 15.87 2 12 2Z" stroke="#1E40AF" stroke-width="2" stroke-linecap="round" stroke-linejoin="round"/>
  
  <!-- Circuits/Connexions -->
  <path d="M9 12L12 15L15 12" stroke="#10B981" stroke-width="2" stroke-linecap="round" stroke-linejoin="round"/>
  <path d="M12 15V18" stroke="#10B981" stroke-width="2" stroke-linecap="round"/>
  
  <!-- Points de données -->
  <circle cx="8" cy="8" r="1" fill="#1E40AF"/>
  <circle cx="16" cy="8" r="1" fill="#1E40AF"/>
  <circle cx="12" cy="6" r="1" fill="#1E40AF"/>
  
  <!-- Graphique d'analyse -->
  <path d="M6 20L8 18L10 19L12 17L14 18L16 16L18 17" stroke="#6B7280" stroke-width="1.5" stroke-linecap="round" stroke-linejoin="round"/>
</svg>
